<svg width="292" height="276" viewBox="0 0 292 276" fill="none" xmlns="http://www.w3.org/2000/svg">
<g clip-path="url(#clip0_261_1438)">
<path d="M279.061 160.621H199.465C195.865 160.621 192.404 162.128 189.934 164.752L153.862 203.309L106.403 149.75C100.137 142.689 100.095 131.985 106.291 124.868L153.611 70.542L189.864 111.039C192.334 113.802 195.865 115.379 199.577 115.379H279.061C284.266 115.379 288.829 112.435 290.964 107.676C293.099 102.931 292.276 97.5727 288.829 93.6653L219.88 15.9923C210.852 5.83315 197.888 0 184.282 0H127.865C114.259 0 101.295 5.81919 92.2809 15.9923L11.987 106.406C-4.00478 124.408 -4.00478 151.578 11.987 169.608L92.253 260.008C101.268 270.167 114.231 276.014 127.837 276.014H184.255C197.86 276.014 210.824 270.181 219.852 260.008L288.801 182.335C292.262 178.441 293.085 173.083 290.936 168.324C288.801 163.579 284.238 160.621 279.033 160.621H279.061ZM212.275 22.7325L281.224 100.405C282.354 101.661 281.936 103.015 281.698 103.517C281.475 104.034 280.75 105.234 279.047 105.234H199.563C198.739 105.234 197.958 104.885 197.4 104.271L160.309 62.825L202.2 14.7224C205.954 16.7738 209.373 19.4671 212.275 22.7325ZM184.269 265.855H127.851C117.148 265.855 106.947 261.264 99.8442 253.267L19.5782 162.854C7.00527 148.675 7.00527 127.297 19.5782 113.132L99.8442 22.7325C106.947 14.7364 117.148 10.1452 127.851 10.1452H184.269C186.892 10.1452 189.501 10.4243 192.027 10.9686L98.6441 118.198C89.1132 129.153 89.183 145.605 98.7976 156.462L194.469 264.431C191.176 265.366 187.743 265.855 184.255 265.855H184.269ZM281.238 175.595L212.289 253.267C209.917 255.933 207.182 258.235 204.209 260.105L160.616 210.928L197.358 171.673C197.902 171.087 198.67 170.752 199.479 170.752H279.075C280.777 170.752 281.503 171.952 281.726 172.469C281.964 172.985 282.382 174.311 281.252 175.595H281.238Z" fill="black"/>
</g>
<defs>
<clipPath id="clip0_261_1438">
<rect width="292" height="276" fill="white"/>
</clipPath>
</defs>
</svg>
